<mxfile host="app.diagrams.net" modified="2021-09-20T23:20:12.270Z" agent="5.0 (Macintosh; Intel Mac OS X 10_15_7) AppleWebKit/537.36 (KHTML, like Gecko) Chrome/93.0.4577.82 Safari/537.36" etag="SJOAgmvwhPKbze-eTwem" version="14.9.8" type="github">
  <diagram id="R2lEEEUBdFMjLlhIrx00" name="Page-1">
    <mxGraphModel dx="1256" dy="877" grid="1" gridSize="10" guides="1" tooltips="1" connect="1" arrows="1" fold="1" page="1" pageScale="1" pageWidth="850" pageHeight="1100" math="0" shadow="0" extFonts="Permanent Marker^https://fonts.googleapis.com/css?family=Permanent+Marker">
      <root>
        <mxCell id="0" />
        <mxCell id="1" parent="0" />
        <mxCell id="J1fMxKO8Fa8xe_uoKNtJ-2" value="" style="rounded=0;whiteSpace=wrap;html=1;" vertex="1" parent="1">
          <mxGeometry x="40" y="120" width="280" height="480" as="geometry" />
        </mxCell>
        <mxCell id="J1fMxKO8Fa8xe_uoKNtJ-3" value="" style="rounded=1;whiteSpace=wrap;html=1;" vertex="1" parent="1">
          <mxGeometry x="40" y="310" width="280" height="80" as="geometry" />
        </mxCell>
        <mxCell id="J1fMxKO8Fa8xe_uoKNtJ-4" value="" style="rounded=1;whiteSpace=wrap;html=1;" vertex="1" parent="1">
          <mxGeometry x="40" y="230" width="280" height="80" as="geometry" />
        </mxCell>
        <mxCell id="J1fMxKO8Fa8xe_uoKNtJ-7" value="" style="ellipse;whiteSpace=wrap;html=1;" vertex="1" parent="1">
          <mxGeometry x="190" y="130" width="120" height="80" as="geometry" />
        </mxCell>
        <mxCell id="J1fMxKO8Fa8xe_uoKNtJ-8" value="" style="ellipse;whiteSpace=wrap;html=1;" vertex="1" parent="1">
          <mxGeometry x="40" y="130" width="120" height="80" as="geometry" />
        </mxCell>
        <mxCell id="J1fMxKO8Fa8xe_uoKNtJ-10" value="" style="rounded=0;whiteSpace=wrap;html=1;" vertex="1" parent="1">
          <mxGeometry x="360" y="120" width="280" height="480" as="geometry" />
        </mxCell>
        <mxCell id="J1fMxKO8Fa8xe_uoKNtJ-11" value="Tuesday" style="text;html=1;strokeColor=none;fillColor=none;align=center;verticalAlign=middle;whiteSpace=wrap;rounded=0;" vertex="1" parent="1">
          <mxGeometry x="150" y="330" width="40" height="20" as="geometry" />
        </mxCell>
        <mxCell id="J1fMxKO8Fa8xe_uoKNtJ-12" value="#of jobs" style="text;html=1;strokeColor=none;fillColor=none;align=center;verticalAlign=middle;whiteSpace=wrap;rounded=0;" vertex="1" parent="1">
          <mxGeometry x="90" y="360" width="40" height="20" as="geometry" />
        </mxCell>
        <mxCell id="J1fMxKO8Fa8xe_uoKNtJ-13" value="Time estimate" style="text;html=1;strokeColor=none;fillColor=none;align=center;verticalAlign=middle;whiteSpace=wrap;rounded=0;" vertex="1" parent="1">
          <mxGeometry x="210" y="360" width="40" height="20" as="geometry" />
        </mxCell>
        <mxCell id="J1fMxKO8Fa8xe_uoKNtJ-14" value="Quote" style="text;html=1;strokeColor=none;fillColor=none;align=center;verticalAlign=middle;whiteSpace=wrap;rounded=0;" vertex="1" parent="1">
          <mxGeometry x="240" y="160" width="40" height="20" as="geometry" />
        </mxCell>
        <mxCell id="J1fMxKO8Fa8xe_uoKNtJ-15" value="Logo" style="text;html=1;strokeColor=none;fillColor=none;align=center;verticalAlign=middle;whiteSpace=wrap;rounded=0;" vertex="1" parent="1">
          <mxGeometry x="80" y="160" width="40" height="20" as="geometry" />
        </mxCell>
        <mxCell id="J1fMxKO8Fa8xe_uoKNtJ-18" value="" style="ellipse;whiteSpace=wrap;html=1;" vertex="1" parent="1">
          <mxGeometry x="370" y="130" width="120" height="80" as="geometry" />
        </mxCell>
        <mxCell id="J1fMxKO8Fa8xe_uoKNtJ-19" value="" style="ellipse;whiteSpace=wrap;html=1;" vertex="1" parent="1">
          <mxGeometry x="510" y="130" width="120" height="80" as="geometry" />
        </mxCell>
        <mxCell id="J1fMxKO8Fa8xe_uoKNtJ-20" value="" style="rounded=1;whiteSpace=wrap;html=1;" vertex="1" parent="1">
          <mxGeometry x="360" y="230" width="280" height="80" as="geometry" />
        </mxCell>
        <mxCell id="J1fMxKO8Fa8xe_uoKNtJ-21" value="" style="rounded=1;whiteSpace=wrap;html=1;" vertex="1" parent="1">
          <mxGeometry x="360" y="310" width="280" height="240" as="geometry" />
        </mxCell>
        <mxCell id="J1fMxKO8Fa8xe_uoKNtJ-22" value="&amp;nbsp;today&#39;s date first" style="text;html=1;strokeColor=none;fillColor=none;align=center;verticalAlign=middle;whiteSpace=wrap;rounded=0;" vertex="1" parent="1">
          <mxGeometry x="60" y="250" width="40" height="20" as="geometry" />
        </mxCell>
        <mxCell id="J1fMxKO8Fa8xe_uoKNtJ-23" value="1st job of day" style="text;html=1;strokeColor=none;fillColor=none;align=center;verticalAlign=middle;whiteSpace=wrap;rounded=0;" vertex="1" parent="1">
          <mxGeometry x="390" y="250" width="40" height="20" as="geometry" />
        </mxCell>
        <mxCell id="J1fMxKO8Fa8xe_uoKNtJ-27" style="edgeStyle=orthogonalEdgeStyle;rounded=0;orthogonalLoop=1;jettySize=auto;html=1;exitX=0.5;exitY=0;exitDx=0;exitDy=0;" edge="1" parent="1" source="J1fMxKO8Fa8xe_uoKNtJ-25">
          <mxGeometry relative="1" as="geometry">
            <mxPoint x="570" y="260" as="targetPoint" />
          </mxGeometry>
        </mxCell>
        <mxCell id="J1fMxKO8Fa8xe_uoKNtJ-25" value="estimate # of hours or complete" style="text;html=1;strokeColor=none;fillColor=none;align=center;verticalAlign=middle;whiteSpace=wrap;rounded=0;" vertex="1" parent="1">
          <mxGeometry x="550" y="260" width="40" height="20" as="geometry" />
        </mxCell>
        <mxCell id="J1fMxKO8Fa8xe_uoKNtJ-26" style="edgeStyle=orthogonalEdgeStyle;rounded=0;orthogonalLoop=1;jettySize=auto;html=1;exitX=0.5;exitY=1;exitDx=0;exitDy=0;" edge="1" parent="1" source="J1fMxKO8Fa8xe_uoKNtJ-25" target="J1fMxKO8Fa8xe_uoKNtJ-25">
          <mxGeometry relative="1" as="geometry" />
        </mxCell>
        <mxCell id="J1fMxKO8Fa8xe_uoKNtJ-28" style="edgeStyle=orthogonalEdgeStyle;rounded=0;orthogonalLoop=1;jettySize=auto;html=1;exitX=0.5;exitY=1;exitDx=0;exitDy=0;" edge="1" parent="1" source="J1fMxKO8Fa8xe_uoKNtJ-21" target="J1fMxKO8Fa8xe_uoKNtJ-21">
          <mxGeometry relative="1" as="geometry" />
        </mxCell>
        <mxCell id="J1fMxKO8Fa8xe_uoKNtJ-29" value="2nd Job of day" style="text;html=1;strokeColor=none;fillColor=none;align=center;verticalAlign=middle;whiteSpace=wrap;rounded=0;" vertex="1" parent="1">
          <mxGeometry x="470" y="330" width="40" height="20" as="geometry" />
        </mxCell>
        <mxCell id="J1fMxKO8Fa8xe_uoKNtJ-30" value="Client name, number, email" style="text;html=1;strokeColor=none;fillColor=none;align=center;verticalAlign=middle;whiteSpace=wrap;rounded=0;" vertex="1" parent="1">
          <mxGeometry x="370" y="380" width="250" height="40" as="geometry" />
        </mxCell>
        <mxCell id="J1fMxKO8Fa8xe_uoKNtJ-32" value="Job details: job packages, job specifics" style="text;html=1;strokeColor=none;fillColor=none;align=center;verticalAlign=middle;whiteSpace=wrap;rounded=0;" vertex="1" parent="1">
          <mxGeometry x="390" y="440" width="200" height="20" as="geometry" />
        </mxCell>
        <mxCell id="J1fMxKO8Fa8xe_uoKNtJ-35" value="Client name" style="text;html=1;strokeColor=none;fillColor=none;align=center;verticalAlign=middle;whiteSpace=wrap;rounded=0;" vertex="1" parent="1">
          <mxGeometry x="470" y="250" width="40" height="20" as="geometry" />
        </mxCell>
        <mxCell id="J1fMxKO8Fa8xe_uoKNtJ-37" value="" style="rounded=0;whiteSpace=wrap;html=1;" vertex="1" parent="1">
          <mxGeometry x="680" y="120" width="280" height="480" as="geometry" />
        </mxCell>
        <mxCell id="J1fMxKO8Fa8xe_uoKNtJ-38" value="" style="ellipse;whiteSpace=wrap;html=1;" vertex="1" parent="1">
          <mxGeometry x="690" y="140" width="120" height="80" as="geometry" />
        </mxCell>
        <mxCell id="J1fMxKO8Fa8xe_uoKNtJ-39" value="" style="ellipse;whiteSpace=wrap;html=1;" vertex="1" parent="1">
          <mxGeometry x="830" y="140" width="120" height="80" as="geometry" />
        </mxCell>
        <mxCell id="J1fMxKO8Fa8xe_uoKNtJ-40" value="" style="rounded=1;whiteSpace=wrap;html=1;" vertex="1" parent="1">
          <mxGeometry x="770" y="260" width="180" height="30" as="geometry" />
        </mxCell>
        <mxCell id="J1fMxKO8Fa8xe_uoKNtJ-41" value="Quote form" style="text;html=1;strokeColor=none;fillColor=none;align=center;verticalAlign=middle;whiteSpace=wrap;rounded=0;" vertex="1" parent="1">
          <mxGeometry x="700" y="265" width="40" height="20" as="geometry" />
        </mxCell>
        <mxCell id="J1fMxKO8Fa8xe_uoKNtJ-42" value="Schedule" style="text;html=1;strokeColor=none;fillColor=none;align=center;verticalAlign=middle;whiteSpace=wrap;rounded=0;" vertex="1" parent="1">
          <mxGeometry x="870" y="170" width="40" height="20" as="geometry" />
        </mxCell>
        <mxCell id="J1fMxKO8Fa8xe_uoKNtJ-44" value="" style="rounded=0;whiteSpace=wrap;html=1;" vertex="1" parent="1">
          <mxGeometry y="630" width="970" height="350" as="geometry" />
        </mxCell>
        <mxCell id="J1fMxKO8Fa8xe_uoKNtJ-45" value="" style="ellipse;whiteSpace=wrap;html=1;" vertex="1" parent="1">
          <mxGeometry x="50" y="630" width="170" height="110" as="geometry" />
        </mxCell>
        <mxCell id="J1fMxKO8Fa8xe_uoKNtJ-46" value="Drop down menu&lt;br&gt;Jobs" style="text;html=1;strokeColor=none;fillColor=none;align=center;verticalAlign=middle;whiteSpace=wrap;rounded=0;" vertex="1" parent="1">
          <mxGeometry x="70" y="805" width="130" height="25" as="geometry" />
        </mxCell>
        <mxCell id="J1fMxKO8Fa8xe_uoKNtJ-47" value="" style="triangle;whiteSpace=wrap;html=1;" vertex="1" parent="1">
          <mxGeometry x="40" y="550" width="90" height="100" as="geometry" />
        </mxCell>
        <mxCell id="J1fMxKO8Fa8xe_uoKNtJ-48" value="See all jobs" style="text;html=1;strokeColor=none;fillColor=none;align=center;verticalAlign=middle;whiteSpace=wrap;rounded=0;" vertex="1" parent="1">
          <mxGeometry x="40" y="570" width="60" height="60" as="geometry" />
        </mxCell>
        <mxCell id="J1fMxKO8Fa8xe_uoKNtJ-49" value="" style="triangle;whiteSpace=wrap;html=1;rotation=-180;" vertex="1" parent="1">
          <mxGeometry x="230" y="550" width="90" height="100" as="geometry" />
        </mxCell>
        <mxCell id="J1fMxKO8Fa8xe_uoKNtJ-50" value="Contact Dispatcher" style="text;html=1;strokeColor=none;fillColor=none;align=center;verticalAlign=middle;whiteSpace=wrap;rounded=0;" vertex="1" parent="1">
          <mxGeometry x="270" y="580" width="40" height="50" as="geometry" />
        </mxCell>
        <mxCell id="J1fMxKO8Fa8xe_uoKNtJ-51" value="" style="rounded=0;whiteSpace=wrap;html=1;" vertex="1" parent="1">
          <mxGeometry x="1000" y="120" width="280" height="480" as="geometry" />
        </mxCell>
        <mxCell id="J1fMxKO8Fa8xe_uoKNtJ-52" value="" style="ellipse;whiteSpace=wrap;html=1;" vertex="1" parent="1">
          <mxGeometry x="1010" y="130" width="120" height="80" as="geometry" />
        </mxCell>
        <mxCell id="J1fMxKO8Fa8xe_uoKNtJ-53" value="" style="ellipse;whiteSpace=wrap;html=1;" vertex="1" parent="1">
          <mxGeometry x="1155" y="130" width="120" height="80" as="geometry" />
        </mxCell>
        <mxCell id="J1fMxKO8Fa8xe_uoKNtJ-54" value="" style="rounded=1;whiteSpace=wrap;html=1;" vertex="1" parent="1">
          <mxGeometry x="1000" y="250" width="280" height="30" as="geometry" />
        </mxCell>
        <mxCell id="J1fMxKO8Fa8xe_uoKNtJ-55" value="Date -------- time estimate" style="text;html=1;strokeColor=none;fillColor=none;align=center;verticalAlign=middle;whiteSpace=wrap;rounded=0;" vertex="1" parent="1">
          <mxGeometry x="1030" y="255" width="210" height="20" as="geometry" />
        </mxCell>
        <mxCell id="J1fMxKO8Fa8xe_uoKNtJ-56" value="" style="swimlane;startSize=0;" vertex="1" parent="1">
          <mxGeometry x="1040" y="320" width="200" height="200" as="geometry" />
        </mxCell>
        <mxCell id="J1fMxKO8Fa8xe_uoKNtJ-59" value="" style="rounded=0;whiteSpace=wrap;html=1;" vertex="1" parent="1">
          <mxGeometry x="310" y="810" width="660" height="90" as="geometry" />
        </mxCell>
        <mxCell id="J1fMxKO8Fa8xe_uoKNtJ-60" value="" style="rounded=0;whiteSpace=wrap;html=1;" vertex="1" parent="1">
          <mxGeometry x="310" y="900" width="660" height="80" as="geometry" />
        </mxCell>
        <mxCell id="J1fMxKO8Fa8xe_uoKNtJ-61" value="" style="rounded=0;whiteSpace=wrap;html=1;" vertex="1" parent="1">
          <mxGeometry x="310" y="725" width="660" height="85" as="geometry" />
        </mxCell>
        <mxCell id="J1fMxKO8Fa8xe_uoKNtJ-62" value="Drop down menu for crews" style="text;html=1;strokeColor=none;fillColor=none;align=center;verticalAlign=middle;whiteSpace=wrap;rounded=0;" vertex="1" parent="1">
          <mxGeometry x="85" y="840" width="100" height="40" as="geometry" />
        </mxCell>
        <mxCell id="J1fMxKO8Fa8xe_uoKNtJ-63" value="Calendar" style="text;html=1;strokeColor=none;fillColor=none;align=center;verticalAlign=middle;whiteSpace=wrap;rounded=0;" vertex="1" parent="1">
          <mxGeometry x="115" y="747.5" width="40" height="20" as="geometry" />
        </mxCell>
        <mxCell id="J1fMxKO8Fa8xe_uoKNtJ-65" value="Login/logout" style="text;html=1;strokeColor=none;fillColor=none;align=center;verticalAlign=middle;whiteSpace=wrap;rounded=0;" vertex="1" parent="1">
          <mxGeometry x="115" y="772.5" width="40" height="20" as="geometry" />
        </mxCell>
        <mxCell id="J1fMxKO8Fa8xe_uoKNtJ-66" value="Current Day" style="text;html=1;strokeColor=none;fillColor=none;align=center;verticalAlign=middle;whiteSpace=wrap;rounded=0;" vertex="1" parent="1">
          <mxGeometry x="335" y="755" width="40" height="20" as="geometry" />
        </mxCell>
        <mxCell id="J1fMxKO8Fa8xe_uoKNtJ-68" value="Yesterday" style="rounded=0;whiteSpace=wrap;html=1;" vertex="1" parent="1">
          <mxGeometry x="310" y="650" width="660" height="75" as="geometry" />
        </mxCell>
        <mxCell id="J1fMxKO8Fa8xe_uoKNtJ-69" value="Active Crew" style="text;html=1;strokeColor=none;fillColor=none;align=center;verticalAlign=middle;whiteSpace=wrap;rounded=0;" vertex="1" parent="1">
          <mxGeometry x="420" y="747.5" width="150" height="35" as="geometry" />
        </mxCell>
        <mxCell id="J1fMxKO8Fa8xe_uoKNtJ-72" value="Day 2" style="text;html=1;strokeColor=none;fillColor=none;align=center;verticalAlign=middle;whiteSpace=wrap;rounded=0;" vertex="1" parent="1">
          <mxGeometry x="620" y="840" width="40" height="20" as="geometry" />
        </mxCell>
        <mxCell id="J1fMxKO8Fa8xe_uoKNtJ-73" value="Inactive Crew" style="text;html=1;strokeColor=none;fillColor=none;align=center;verticalAlign=middle;whiteSpace=wrap;rounded=0;" vertex="1" parent="1">
          <mxGeometry x="590" y="755" width="130" height="20" as="geometry" />
        </mxCell>
        <mxCell id="J1fMxKO8Fa8xe_uoKNtJ-74" value="" style="rounded=0;whiteSpace=wrap;html=1;" vertex="1" parent="1">
          <mxGeometry y="1000" width="970" height="390" as="geometry" />
        </mxCell>
        <mxCell id="J1fMxKO8Fa8xe_uoKNtJ-75" value="Clients" style="text;html=1;strokeColor=none;fillColor=none;align=center;verticalAlign=middle;whiteSpace=wrap;rounded=0;" vertex="1" parent="1">
          <mxGeometry x="110" y="890" width="40" height="20" as="geometry" />
        </mxCell>
        <mxCell id="J1fMxKO8Fa8xe_uoKNtJ-76" value="Front page" style="text;html=1;strokeColor=none;fillColor=none;align=center;verticalAlign=middle;whiteSpace=wrap;rounded=0;" vertex="1" parent="1">
          <mxGeometry x="150" y="80" width="40" height="20" as="geometry" />
        </mxCell>
        <mxCell id="J1fMxKO8Fa8xe_uoKNtJ-77" value="Job Page" style="text;html=1;strokeColor=none;fillColor=none;align=center;verticalAlign=middle;whiteSpace=wrap;rounded=0;" vertex="1" parent="1">
          <mxGeometry x="480" y="80" width="40" height="20" as="geometry" />
        </mxCell>
        <mxCell id="J1fMxKO8Fa8xe_uoKNtJ-78" value="Quote page" style="text;html=1;strokeColor=none;fillColor=none;align=center;verticalAlign=middle;whiteSpace=wrap;rounded=0;" vertex="1" parent="1">
          <mxGeometry x="800" y="80" width="40" height="20" as="geometry" />
        </mxCell>
        <mxCell id="J1fMxKO8Fa8xe_uoKNtJ-79" value="Jobs Page" style="text;html=1;strokeColor=none;fillColor=none;align=center;verticalAlign=middle;whiteSpace=wrap;rounded=0;" vertex="1" parent="1">
          <mxGeometry x="1120" y="80" width="40" height="20" as="geometry" />
        </mxCell>
        <mxCell id="J1fMxKO8Fa8xe_uoKNtJ-81" value="" style="ellipse;whiteSpace=wrap;html=1;" vertex="1" parent="1">
          <mxGeometry x="10" y="1030" width="170" height="110" as="geometry" />
        </mxCell>
        <mxCell id="J1fMxKO8Fa8xe_uoKNtJ-82" value="Form for booking jobs" style="text;html=1;strokeColor=none;fillColor=none;align=center;verticalAlign=middle;whiteSpace=wrap;rounded=0;" vertex="1" parent="1">
          <mxGeometry x="220" y="1220" width="390" height="20" as="geometry" />
        </mxCell>
        <mxCell id="J1fMxKO8Fa8xe_uoKNtJ-85" value="" style="rounded=0;whiteSpace=wrap;html=1;" vertex="1" parent="1">
          <mxGeometry y="1450" width="970" height="390" as="geometry" />
        </mxCell>
        <mxCell id="J1fMxKO8Fa8xe_uoKNtJ-86" value="" style="rounded=0;whiteSpace=wrap;html=1;" vertex="1" parent="1">
          <mxGeometry y="1860" width="970" height="390" as="geometry" />
        </mxCell>
        <mxCell id="J1fMxKO8Fa8xe_uoKNtJ-87" value="" style="ellipse;whiteSpace=wrap;html=1;" vertex="1" parent="1">
          <mxGeometry y="1890" width="170" height="110" as="geometry" />
        </mxCell>
        <mxCell id="J1fMxKO8Fa8xe_uoKNtJ-88" value="" style="ellipse;whiteSpace=wrap;html=1;" vertex="1" parent="1">
          <mxGeometry x="10" y="1480" width="170" height="110" as="geometry" />
        </mxCell>
        <mxCell id="J1fMxKO8Fa8xe_uoKNtJ-90" value="" style="rounded=0;whiteSpace=wrap;html=1;" vertex="1" parent="1">
          <mxGeometry x="210" y="1630" width="640" height="120" as="geometry" />
        </mxCell>
        <mxCell id="J1fMxKO8Fa8xe_uoKNtJ-94" value="Crew info" style="text;html=1;strokeColor=none;fillColor=none;align=center;verticalAlign=middle;whiteSpace=wrap;rounded=0;" vertex="1" parent="1">
          <mxGeometry x="230" y="1650" width="470" height="90" as="geometry" />
        </mxCell>
        <mxCell id="J1fMxKO8Fa8xe_uoKNtJ-95" value="" style="ellipse;whiteSpace=wrap;html=1;aspect=fixed;" vertex="1" parent="1">
          <mxGeometry x="50" y="1630" width="120" height="120" as="geometry" />
        </mxCell>
        <mxCell id="J1fMxKO8Fa8xe_uoKNtJ-96" value="Foreman Selfie" style="text;html=1;strokeColor=none;fillColor=none;align=center;verticalAlign=middle;whiteSpace=wrap;rounded=0;" vertex="1" parent="1">
          <mxGeometry x="90" y="1670" width="40" height="20" as="geometry" />
        </mxCell>
        <mxCell id="J1fMxKO8Fa8xe_uoKNtJ-97" value="Active contracts: details of each job, address, package,&amp;nbsp;" style="rounded=0;whiteSpace=wrap;html=1;" vertex="1" parent="1">
          <mxGeometry x="210" y="2050" width="670" height="130" as="geometry" />
        </mxCell>
        <mxCell id="J1fMxKO8Fa8xe_uoKNtJ-101" value="Client Info" style="rounded=0;whiteSpace=wrap;html=1;" vertex="1" parent="1">
          <mxGeometry x="35" y="2080" width="120" height="60" as="geometry" />
        </mxCell>
        <mxCell id="J1fMxKO8Fa8xe_uoKNtJ-104" value="Create Packages" style="rounded=0;whiteSpace=wrap;html=1;" vertex="1" parent="1">
          <mxGeometry y="2320" width="970" height="390" as="geometry" />
        </mxCell>
        <mxCell id="J1fMxKO8Fa8xe_uoKNtJ-105" value="" style="ellipse;whiteSpace=wrap;html=1;" vertex="1" parent="1">
          <mxGeometry y="2360" width="170" height="110" as="geometry" />
        </mxCell>
        <mxCell id="J1fMxKO8Fa8xe_uoKNtJ-106" value="Send info to&amp;nbsp;&lt;br&gt;Dispatcher" style="triangle;whiteSpace=wrap;html=1;rotation=0;" vertex="1" parent="1">
          <mxGeometry x="680" y="540" width="100" height="120" as="geometry" />
        </mxCell>
        <mxCell id="J1fMxKO8Fa8xe_uoKNtJ-107" value="Incoming quote" style="rounded=0;whiteSpace=wrap;html=1;" vertex="1" parent="1">
          <mxGeometry x="65" y="920" width="140" height="60" as="geometry" />
        </mxCell>
      </root>
    </mxGraphModel>
  </diagram>
</mxfile>
